<?xml version="1.0" standalone="no"?>
<!DOCTYPE svg PUBLIC "-//W3C//DTD SVG 20010904//EN"
 "http://www.w3.org/TR/2001/REC-SVG-20010904/DTD/svg10.dtd">
<svg version="1.0" xmlns="http://www.w3.org/2000/svg"
 width="512.000000pt" height="512.000000pt" viewBox="0 0 512.000000 512.000000"
 preserveAspectRatio="xMidYMid meet">
<metadata>
Created by potrace 1.16, written by Peter Selinger 2001-2019
</metadata>
<g transform="translate(0.000000,512.000000) scale(0.100000,-0.100000)"
fill="#000000" stroke="none">
<path d="M2370 5113 c-302 -49 -527 -150 -746 -333 -295 -248 -479 -619 -500
-1010 -11 -187 27 -302 130 -406 288 -287 776 -80 776 329 0 124 61 267 155
361 103 104 228 157 375 157 224 0 413 -132 497 -348 23 -59 27 -83 27 -178 0
-95 -4 -119 -27 -178 -60 -153 -168 -261 -320 -319 -29 -11 -108 -26 -179 -33
-106 -11 -139 -19 -195 -46 -89 -43 -169 -122 -214 -214 l-34 -70 0 -640 0
-640 34 -70 c45 -92 124 -171 216 -216 68 -33 73 -34 195 -34 122 0 127 1 195
34 92 45 171 124 216 216 l34 70 3 386 3 387 62 22 c173 62 362 185 507 331
207 208 335 450 397 749 27 129 24 411 -5 546 -84 388 -300 709 -617 919 -163
107 -367 188 -554 219 -87 15 -362 21 -431 9z"/>
<path d="M2411 881 c-120 -45 -207 -124 -264 -240 -31 -64 -32 -71 -32 -191 0
-120 1 -127 32 -191 58 -118 146 -197 269 -240 49 -17 77 -20 164 -17 95 3
112 7 175 38 92 44 171 123 216 215 33 68 34 73 34 195 0 122 -1 127 -34 195
-45 92 -124 171 -216 215 -65 32 -79 35 -180 37 -90 3 -120 0 -164 -16z"/>
</g>
</svg>
